<svg width="355" height="575" viewBox="0 0 355 575" fill="none" xmlns="http://www.w3.org/2000/svg">
<g clip-path="url(#clip0_1249_4884)">
<circle cx="192" cy="279" r="121" fill="#FFB800"/>
<path fill-rule="evenodd" clip-rule="evenodd" d="M138.211 33.6073H7.45801V21.8914C7.45801 19.3499 9.51855 17.2894 12.06 17.2894H133.609C136.15 17.2894 138.211 19.3499 138.211 21.8914V33.6073Z" fill="#253368"/>
<path fill-rule="evenodd" clip-rule="evenodd" d="M133.609 146.413H12.06C9.51855 146.413 7.45801 144.353 7.45801 141.811V32.235H138.211V141.811C138.211 144.353 136.15 146.413 133.609 146.413Z" fill="#E4EBF7"/>
<path fill-rule="evenodd" clip-rule="evenodd" d="M18.0849 24.8833C18.0849 26.4783 16.7917 27.7715 15.1965 27.7715C13.6016 27.7715 12.3086 26.4783 12.3086 24.8833C12.3086 23.2883 13.6016 21.9952 15.1965 21.9952C16.7917 21.9952 18.0849 23.2883 18.0849 24.8833Z" fill="#FF7946"/>
<path fill-rule="evenodd" clip-rule="evenodd" d="M28.8698 24.8833C28.8698 26.4783 27.5769 27.7715 25.9817 27.7715C24.3867 27.7715 23.0938 26.4783 23.0938 24.8833C23.0938 23.2883 24.3867 21.9952 25.9817 21.9952C27.5769 21.9952 28.8698 23.2883 28.8698 24.8833Z" fill="#FAAD14"/>
<path fill-rule="evenodd" clip-rule="evenodd" d="M39.656 24.8833C39.656 26.4783 38.363 27.7715 36.7678 27.7715C35.1729 27.7715 33.8799 26.4783 33.8799 24.8833C33.8799 23.2883 35.1729 21.9952 36.7678 21.9952C38.363 21.9952 39.656 23.2883 39.656 24.8833Z" fill="#7CB305"/>
<path fill-rule="evenodd" clip-rule="evenodd" d="M21.5903 130.883C20.7971 130.883 20.1543 130.24 20.1543 129.448V46.2656C20.1543 45.4732 20.7971 44.8307 21.5903 44.8307H125.508C126.301 44.8307 126.944 45.4732 126.944 46.2656V129.448C126.944 130.24 126.301 130.883 125.508 130.883H21.5903Z" fill="white"/>
<path fill-rule="evenodd" clip-rule="evenodd" d="M91.4239 93.1206C85.1876 93.1206 80.1206 88.0323 80.1206 81.7395C80.099 75.4871 85.1501 70.4011 91.4026 70.3795C91.4097 70.3795 91.4168 70.3795 91.4239 70.3795C97.6566 70.3795 102.724 75.4675 102.724 81.7571C102.713 88.0323 97.6566 93.117 91.4239 93.1206ZM119.547 77.7814C119.328 76.5413 118.141 75.2727 116.9 75.0001L115.976 74.7874C113.73 74.1065 111.829 72.5947 110.661 70.5601C109.48 68.5049 109.13 66.076 109.683 63.771L109.973 62.8995C110.345 61.6911 109.863 60.0223 108.896 59.1968C108.896 59.1968 108.028 58.4597 105.59 57.0423C103.142 55.6322 102.093 55.2387 102.093 55.2387C100.902 54.7994 99.237 55.2211 98.3653 56.1493L97.7239 56.8404C96.0296 58.4614 93.7723 59.3619 91.4276 59.3527C89.0696 59.3592 86.801 58.4511 85.0991 56.8191L84.4826 56.1459C83.6249 55.2176 81.949 54.8065 80.7548 55.2387C80.7548 55.2387 79.6917 55.6322 77.2469 57.0423C74.7986 58.4703 73.9375 59.2073 73.9375 59.2073C72.9736 60.0257 72.4919 61.6771 72.8639 62.8995L73.1296 63.7817C73.6761 66.0835 73.3266 68.5068 72.1515 70.5601C70.9847 72.6114 69.0682 74.1303 66.8046 74.798L65.9154 75.0001C64.6965 75.2835 63.4954 76.5342 63.2685 77.7814C63.2685 77.7814 63.0664 78.9012 63.0664 81.7429C63.0664 84.5847 63.2685 85.7008 63.2685 85.7008C63.4883 86.9553 64.6752 88.2095 65.9154 88.4824L66.7835 88.6843C69.0511 89.3541 70.9717 90.8777 72.1375 92.9363C73.3563 95.073 73.6506 97.5036 73.1154 99.7254L72.8639 100.586C72.4919 101.795 72.9736 103.464 73.9409 104.289C73.9409 104.289 74.8092 105.026 77.2469 106.444C79.6954 107.861 80.7477 108.247 80.7477 108.247C81.9348 108.686 83.6038 108.265 84.4755 107.337L85.0847 106.678C88.6282 103.286 94.2125 103.29 97.7523 106.684L98.3618 107.347C99.2191 108.272 100.895 108.686 102.089 108.254C102.089 108.254 103.152 107.861 105.601 106.451C108.046 105.033 108.903 104.296 108.903 104.296C109.87 103.481 110.353 101.816 109.98 100.593L109.715 99.7005C109.166 97.407 109.516 94.9906 110.692 92.9471C111.865 90.895 113.782 89.3725 116.047 88.695L116.918 88.4929C118.137 88.2095 119.338 86.9587 119.565 85.7114C119.565 85.7114 119.767 84.5918 119.767 81.7535C119.746 78.9083 119.547 77.7814 119.547 77.7814Z" fill="#597EF7"/>
<path fill-rule="evenodd" clip-rule="evenodd" d="M52.3371 107.501C49.5607 109.08 46.017 108.097 44.4239 105.296C42.8318 102.518 43.7929 98.975 46.5712 97.3828L46.5806 97.3774C49.3552 95.7997 52.8991 96.7822 54.491 99.5823C56.0749 102.379 55.1109 105.922 52.3371 107.501ZM60.9745 93.5537C60.5626 93.0573 59.7133 92.7928 59.092 92.9854L58.6265 93.1248C57.4545 93.3901 56.2256 93.1982 55.1903 92.5884C54.1445 91.9723 53.3737 90.9795 53.0362 89.8134L52.9451 89.3519C52.8048 88.7199 52.1678 88.0988 51.5283 87.9761C51.5283 87.9761 50.9551 87.8677 49.5113 87.8539C48.0641 87.8459 47.4977 87.9362 47.4977 87.9362C46.8565 88.042 46.2216 88.6512 46.0688 89.2853L45.9579 89.7551C45.6139 90.9058 44.8372 91.878 43.791 92.4674C42.7429 93.0672 41.503 93.2371 40.3324 92.9414L39.8873 92.7978C39.2705 92.6017 38.4204 92.8429 37.9984 93.3376C37.9984 93.3376 37.6245 93.7819 36.8932 95.0284C36.1645 96.284 35.9678 96.8301 35.9678 96.8301C35.7461 97.4384 35.9494 98.2955 36.4245 98.7455L36.766 99.0711C37.5921 99.9574 38.0498 101.125 38.0467 102.336C38.0463 103.545 37.5775 104.706 36.7388 105.576L36.394 105.891C35.9231 106.326 35.7051 107.187 35.9198 107.8C35.9198 107.8 36.1135 108.349 36.8327 109.614C37.5522 110.879 37.9246 111.325 37.9246 111.325C38.3399 111.828 39.1857 112.086 39.8068 111.894L40.2446 111.764C41.4236 111.488 42.6644 111.68 43.7043 112.301C44.7879 112.944 45.534 113.952 45.8582 115.076L45.9643 115.523C46.1044 116.155 46.7414 116.776 47.3811 116.899C47.3811 116.899 47.9542 117.007 49.3983 117.021C50.847 117.033 51.4134 116.938 51.4134 116.938C52.0531 116.833 52.6891 116.223 52.8423 115.589L52.9468 115.141C53.6659 112.735 56.1527 111.323 58.5879 111.938L59.027 112.079C59.6429 112.273 60.4939 112.034 60.916 111.539C60.916 111.539 61.2897 111.095 62.0227 109.847C62.7524 108.597 62.9476 108.052 62.9476 108.052C63.1719 107.444 62.965 106.581 62.4899 106.131L62.1455 105.801C61.3208 104.919 60.8648 103.754 60.8713 102.547C60.8738 101.336 61.342 100.173 62.1785 99.2983L62.5154 98.9879C62.9863 98.553 63.2045 97.6922 62.9897 97.0794C62.9897 97.0794 62.7963 96.5298 62.0778 95.2664C61.348 94.0051 60.9745 93.5537 60.9745 93.5537Z" fill="#9254DC"/>
<path fill-rule="evenodd" clip-rule="evenodd" d="M47.6743 59.5732H31.7811C30.743 59.5732 29.8936 58.7238 29.8936 57.6856V57.5272C29.8936 56.4889 30.743 55.6395 31.7811 55.6395H47.6743C48.7125 55.6395 49.5619 56.4889 49.5619 57.5272V57.6856C49.5619 58.7238 48.7125 59.5732 47.6743 59.5732Z" fill="#ADC6FF"/>
<path fill-rule="evenodd" clip-rule="evenodd" d="M43.2278 68.7772H33.3937C32.3075 68.7772 31.4268 67.8967 31.4268 66.8104C31.4268 65.7241 32.3075 64.8434 33.3937 64.8434H43.2278C44.3141 64.8434 45.1946 65.7241 45.1946 66.8104C45.1946 67.8967 44.3141 68.7772 43.2278 68.7772Z" fill="#ADC6FF"/>
<path fill-rule="evenodd" clip-rule="evenodd" d="M129.219 106.062C113.904 106.062 101.489 118.477 101.489 133.792C101.489 149.106 113.904 161.522 129.219 161.522C144.534 161.522 156.949 149.106 156.949 133.792C156.949 118.477 144.534 106.062 129.219 106.062Z" fill="#8BBC06"/>
<path fill-rule="evenodd" clip-rule="evenodd" d="M124.752 143.211L123.001 141.461L139.966 124.434C140.546 123.854 141.487 123.854 142.067 124.434L142.767 125.134C143.347 125.714 143.347 126.655 142.767 127.235L126.853 143.211C126.272 143.791 125.332 143.791 124.752 143.211Z" fill="white"/>
<path fill-rule="evenodd" clip-rule="evenodd" d="M128.6 141.461L126.849 143.211C126.269 143.791 125.328 143.791 124.748 143.211L117.777 136.24C117.197 135.66 117.197 134.719 117.777 134.139L118.477 133.439C119.057 132.859 119.998 132.859 120.578 133.439L128.6 141.461Z" fill="white"/>
<path fill-rule="evenodd" clip-rule="evenodd" d="M182.309 297.557C151.09 351.249 109.923 330.452 97.3536 317.759C83.1173 303.385 66.5628 306.316 60.3492 288.059C53.2389 267.169 68.6084 252.593 64.8573 243.293C53.088 207.158 80.0285 218.734 74.5877 196.294C65.4971 158.797 71.3593 159.175 85.8141 131.198C103.056 97.8279 124.425 111.512 124.425 111.512C124.425 111.512 152.282 102.938 167.294 140.14C170.008 146.867 179.581 150.398 180.861 167.689C184.127 211.754 208.2 213.764 214.788 243.552C221.663 274.649 192.61 279.123 182.309 297.557Z" fill="#253368"/>
<path fill-rule="evenodd" clip-rule="evenodd" d="M163.208 174.909C164.263 163.899 156.263 165.602 156.263 165.602C156.263 165.602 153.061 177.182 153.338 186.374C164.747 185.781 163.208 174.909 163.208 174.909Z" fill="#F4B784"/>
<path fill-rule="evenodd" clip-rule="evenodd" d="M85.0544 179.742C82.6528 168.944 93.0501 169.51 93.0501 169.51C93.0501 169.51 97.6528 180.61 98.5112 189.763C87.1159 190.581 85.0544 179.742 85.0544 179.742Z" fill="#F4B784"/>
<path fill-rule="evenodd" clip-rule="evenodd" d="M128.654 253.328C118.633 253.947 110.108 246.109 107.635 236.212L106.77 197.482L141.242 195.351L145.157 233.892C146.171 243.879 138.676 252.708 128.654 253.328Z" fill="#F4B784"/>
<path d="M127.84 198.494C128.313 198.433 128.746 198.767 128.807 199.24C128.862 199.666 128.597 200.06 128.198 200.179L128.061 200.208L125.073 200.593C124.6 200.654 124.167 200.32 124.106 199.847C124.051 199.421 124.316 199.027 124.715 198.908L124.852 198.879L127.84 198.494Z" fill="#DD936F"/>
<path fill-rule="evenodd" clip-rule="evenodd" d="M155.79 173.16C154.542 197.705 144.347 213.588 127.214 214.649C110.08 215.708 96.9725 198.654 93.7441 176.996C88.3438 140.787 104.756 129.604 121.89 128.542C139.023 127.484 157.698 135.659 155.79 173.16Z" fill="#FFC999"/>
<path fill-rule="evenodd" clip-rule="evenodd" d="M157.821 144.54C153.11 130.049 145.02 115.674 123.729 120.803C96.9082 108.48 60.4941 169.753 84.8753 170.798C107.815 171.783 104.075 154.111 108.171 142.103C111.937 131.066 120.839 142.592 120.839 142.592C120.839 142.592 125.029 137.248 130.213 138.834C138.898 141.49 130.747 158.925 152.925 168.147C155.624 169.271 154.272 184.075 155.106 182.84C158.988 177.093 162.529 159.027 157.821 144.54Z" fill="#253368"/>
<path d="M99.2515 155.933L99.4045 155.94L114.765 157.677C115.383 157.747 115.828 158.304 115.758 158.923C115.694 159.489 115.22 159.91 114.665 159.922L114.512 159.915L99.1514 158.178C98.5332 158.108 98.0887 157.551 98.1586 156.932C98.2227 156.366 98.6967 155.945 99.2515 155.933Z" fill="#253368"/>
<path d="M146.843 153.842C147.457 153.741 148.036 154.158 148.136 154.772C148.228 155.335 147.886 155.868 147.355 156.03L147.206 156.065L129.032 159.03C128.418 159.13 127.839 158.714 127.739 158.1C127.647 157.537 127.989 157.003 128.52 156.841L128.669 156.807L146.843 153.842Z" fill="#253368"/>
<path d="M116.477 159.861C116.86 159.666 117.319 159.784 117.565 160.119L117.639 160.239L120.291 165.445C120.33 165.524 120.358 165.607 120.373 165.693L120.385 165.823L120.677 183.776L125.169 185.379C125.573 185.523 125.803 185.938 125.728 186.347L125.692 186.483C125.548 186.888 125.133 187.118 124.724 187.043L124.588 187.006L119.532 185.202C119.235 185.096 119.023 184.839 118.971 184.535L118.959 184.402L118.66 166.052L116.099 161.023C115.904 160.64 116.022 160.181 116.357 159.935L116.477 159.861Z" fill="#DD936F"/>
<path d="M107.461 166.09C110.584 165.895 113.202 168.702 113.421 172.253C113.459 172.874 112.986 173.408 112.365 173.446C111.744 173.484 111.21 173.012 111.172 172.391C111.025 169.997 109.375 168.228 107.601 168.339C105.828 168.448 104.409 170.406 104.557 172.799C104.596 173.42 104.124 173.955 103.503 173.993C102.882 174.032 102.347 173.56 102.309 172.939C102.088 169.39 104.34 166.283 107.461 166.09Z" fill="#253368"/>
<path d="M137.85 164.211C140.972 164.016 143.591 166.822 143.811 170.37C143.85 170.991 143.378 171.526 142.757 171.565C142.136 171.603 141.601 171.131 141.563 170.51C141.414 168.117 139.763 166.349 137.989 166.46C136.217 166.569 134.797 168.527 134.946 170.92C134.985 171.541 134.513 172.076 133.892 172.114C133.271 172.153 132.736 171.681 132.698 171.06C132.477 167.511 134.729 164.404 137.85 164.211Z" fill="#253368"/>
<path d="M132.635 189.458L130.953 189.555C128.42 189.693 125.734 189.798 123.023 189.875L120.066 189.949L117.052 189.999C116.32 190.006 115.79 190.697 115.971 191.405C116.187 192.246 116.708 193.433 117.663 194.623C119.402 196.789 121.941 198.024 125.313 197.814C128.721 197.603 131.086 196.319 132.503 194.297C133.455 192.939 133.8 191.585 133.831 190.618C133.852 189.955 133.298 189.417 132.635 189.458ZM131.285 191.793L131.22 191.973C131.076 192.326 130.89 192.673 130.658 193.004C129.641 194.455 127.908 195.397 125.173 195.566C122.565 195.728 120.718 194.83 119.42 193.213L119.177 192.891C119.099 192.782 119.025 192.672 118.954 192.561L118.753 192.225L120.771 192.187L121.45 192.171C124.183 192.104 126.917 192.01 129.525 191.884L131.285 191.793Z" fill="#C44343"/>
<path d="M128.077 201.402C128.553 201.372 128.963 201.734 128.993 202.21C129.019 202.639 128.729 203.014 128.323 203.106L128.184 203.126L123.752 203.401C123.276 203.431 122.866 203.069 122.837 202.592C122.81 202.164 123.101 201.789 123.506 201.696L123.646 201.676L128.077 201.402Z" fill="#DD936F"/>
<path fill-rule="evenodd" clip-rule="evenodd" d="M158.65 182.941C158.416 182.333 157.537 182.405 157.406 183.045C156.248 188.686 153.673 203.844 159.495 203.837C166.06 203.828 160.779 188.497 158.65 182.941Z" fill="white"/>
<path fill-rule="evenodd" clip-rule="evenodd" d="M92.9429 187.005C92.7086 186.397 91.83 186.469 91.6993 187.109C90.5413 192.75 87.9662 207.908 93.7877 207.901C100.353 207.892 95.0719 192.561 92.9429 187.005Z" fill="white"/>
<path fill-rule="evenodd" clip-rule="evenodd" d="M47.9553 399.603C37.54 397.801 30.4884 387.345 31.8852 375.769L41.8566 279.86C43.7176 264.443 53.1438 252.883 65.5056 255.799C79.2192 258.171 84.3672 275.19 81.2131 290.212L71.1785 382.186C68.7521 393.736 58.5013 401.428 47.9553 399.603Z" fill="#FFC999"/>
<path fill-rule="evenodd" clip-rule="evenodd" d="M78.2571 332.044L36.7559 321.324L39.8536 281.344C45.2134 255.775 57.5054 255.683 73.3885 252.258L91.3083 250.702C106.247 253.004 95.456 271.823 92.8899 286.715L78.2571 332.044Z" fill="#597EF7"/>
<path d="M37.2406 321.328L37.3765 321.349L77.6693 331.032L79.0178 326.385C79.1348 325.982 79.5261 325.732 79.9298 325.781L80.0645 325.809C80.4679 325.926 80.7171 326.317 80.6682 326.721L80.6407 326.856L79.0681 332.278C78.9564 332.664 78.5929 332.911 78.2053 332.887L78.0593 332.865L36.9816 322.992C36.5279 322.883 36.2485 322.427 36.3576 321.973C36.4557 321.565 36.835 321.298 37.2406 321.328Z" fill="#253368"/>
<path fill-rule="evenodd" clip-rule="evenodd" d="M279.917 215.18C273.94 205.988 261.258 207.236 251.16 213.067L168.696 253.241C155.246 261.004 150.601 278.839 158.565 291.083C166.434 303.186 184.269 301.453 196.82 292.617L269.767 248.589C293.026 229.982 279.917 215.18 279.917 215.18Z" fill="#FFC999"/>
<path fill-rule="evenodd" clip-rule="evenodd" d="M221.769 278.613L206.756 234.21L158.124 250.701C144.172 256.511 135.295 286.861 143.73 298.465L140.247 298.612C146.303 312.458 173.78 302.676 187.516 296.375L221.769 278.613Z" fill="#597EF7"/>
<path fill-rule="evenodd" clip-rule="evenodd" d="M39.7157 674.437C42.061 583.575 46.4723 471.46 54.7428 451.609C54.7428 451.609 64.8922 439.624 95.3406 458.654C130.842 480.843 127.627 513.207 127.627 513.207L128.071 677.551C127.346 689.566 126.089 726.881 79.6917 726.881C34.0203 726.881 39.6662 676.416 39.7157 674.437Z" fill="#E4EBF7"/>
<path fill-rule="evenodd" clip-rule="evenodd" d="M221.312 684.587C218.967 593.724 214.556 481.609 206.285 461.761C206.285 461.761 196.136 449.773 165.688 468.803C130.186 490.992 133.403 523.356 133.403 523.356L132.957 687.7C133.682 699.717 134.94 737.03 181.336 737.03C227.008 737.03 221.364 686.565 221.312 684.587Z" fill="#E4EBF7"/>
<path fill-rule="evenodd" clip-rule="evenodd" d="M211.358 486.498C211.358 486.498 208.672 434.483 173.851 407.339L80.7915 406.997C80.7915 406.997 48.748 435.557 48.748 489.035C48.748 489.035 65.0232 492.176 83.923 504.472C96.2511 512.493 110.032 523.501 131.57 523.501C153.527 523.501 165.049 513.507 177.526 505.317C196.047 493.163 211.358 486.498 211.358 486.498Z" fill="#E4EBF7"/>
<path fill-rule="evenodd" clip-rule="evenodd" d="M80.3301 407.862L174.162 407.341L170.026 393.486L85.0883 393.585L80.3301 407.862Z" fill="#E4EBF7"/>
<path d="M171.176 406.271C171.643 406.271 172.021 406.649 172.021 407.115C172.021 407.535 171.715 407.884 171.313 407.949L171.176 407.96H83.1906C82.724 407.96 82.3457 407.582 82.3457 407.115C82.3457 406.695 82.6521 406.347 83.0535 406.282L83.1906 406.271H171.176Z" fill="#A3B5D6"/>
<path d="M128.61 392.407C129.03 392.407 129.379 392.713 129.444 393.114L129.455 393.251V518.994C129.455 519.461 129.077 519.839 128.61 519.839C128.191 519.839 127.842 519.533 127.777 519.131L127.766 518.994V393.251C127.766 392.785 128.144 392.407 128.61 392.407Z" fill="#A3B5D6"/>
<path fill-rule="evenodd" clip-rule="evenodd" d="M171.657 246.262C165.948 246.897 156.405 248.83 150.723 243.725C147.364 240.704 147.553 231.248 147.553 231.248L104.698 231.111C104.698 231.111 104.817 242.322 101.458 245.343C95.7764 250.45 80.9476 250.385 71.8548 253.516C55.9604 258.991 60.2387 288.914 67.0042 307.098C68.57 311.302 65.871 319.225 68.4867 325.069C71.1158 330.952 75.1125 338.073 76.6986 341.881C81.9096 354.385 80.8395 367.855 84.2031 379.201C84.2031 379.201 78.8456 389.562 87.3009 393.768H168.508C178.648 389.138 171.606 379.201 171.606 379.201C174.816 368.373 172.867 359.643 177.623 343.785C178.576 340.612 182.154 335.586 185.202 328.877C189.96 318.41 188.847 308.402 188.374 305.829C183.711 280.515 187.716 244.478 171.657 246.262Z" fill="#597EF7"/>
<path d="M139.346 248.207C139.812 248.181 140.211 248.538 140.236 249.004C140.259 249.424 139.972 249.788 139.574 249.875L139.438 249.894L113.991 251.275C113.525 251.3 113.127 250.943 113.102 250.477C113.079 250.058 113.366 249.693 113.763 249.606L113.9 249.588L139.346 248.207Z" fill="#253368"/>
<path d="M73.4302 282.208C73.6305 281.787 74.1345 281.607 74.5559 281.808C74.9774 282.008 75.1567 282.512 74.9564 282.933L74.6841 283.538L74.2592 284.54C74.1592 284.782 74.0557 285.039 73.9491 285.308C73.1856 287.233 72.4215 289.417 71.7081 291.813C69.1233 300.494 67.8749 309.547 68.6925 318.332C69.3472 325.367 71.6527 331.065 77.2822 340.311L77.7336 341.049L77.8461 341.345L78.9225 347.395L79.9706 353.205C80.2032 354.486 80.4349 355.755 80.6647 357.008L82.0466 364.447C83.434 371.807 84.4703 376.924 85.0174 378.984C85.0739 379.197 85.0452 379.423 84.9373 379.615C81.8336 385.138 84.0878 392.174 87.1227 392.887L87.2986 392.922L168.559 392.921L168.817 392.758L168.97 392.652C169.43 392.326 169.894 391.915 170.326 391.416C172.614 388.779 173.17 384.939 170.83 379.537C170.763 379.381 170.744 379.208 170.776 379.042L171.669 374.345C172.923 367.672 174.025 361.483 174.979 355.823L175.616 351.99C175.868 350.452 176.097 349.019 176.305 347.696L176.942 343.533L177.133 342.219C177.152 342.089 177.2 341.965 177.275 341.857C184.072 332.006 187.059 324.21 187.53 315.51C187.961 307.573 186.511 299.68 183.826 292.251C183 289.963 182.114 287.891 181.23 286.073C181.044 285.693 180.867 285.34 180.7 285.016L180.218 284.115C180.149 283.99 180.098 283.9 180.065 283.844C179.828 283.442 179.962 282.924 180.364 282.688C180.767 282.451 181.284 282.585 181.521 282.987L181.693 283.29L181.865 283.605C182.133 284.1 182.43 284.678 182.749 285.334C183.659 287.204 184.568 289.331 185.416 291.677C188.172 299.304 189.662 307.415 189.218 315.602C188.741 324.405 185.787 332.309 179.194 342.044L178.777 342.651L178.434 344.982C178.225 346.364 177.985 347.906 177.714 349.602L177.283 352.263C176.191 358.938 174.876 366.431 173.33 374.657L172.483 379.107L172.595 379.375C174.868 384.947 174.281 389.222 171.831 392.251L171.603 392.523C170.698 393.566 169.786 394.213 169.144 394.526C169.067 394.563 168.985 394.589 168.901 394.602L168.774 394.611L87.1738 394.602C82.785 393.946 79.9702 385.94 83.1055 379.474L83.2995 379.091L83.0906 378.226C82.4948 375.671 81.5722 371.051 80.3959 364.812L79.6855 361.013L78.6565 355.421L76.7206 344.677L76.2088 341.794L75.8336 341.181C70.2364 331.986 67.821 326.138 67.0676 319.065L67.0101 318.489C66.17 309.463 67.447 300.203 70.0886 291.331C70.8168 288.885 71.5972 286.655 72.3783 284.685L72.6975 283.895C72.8005 283.644 72.9001 283.408 72.9957 283.185L73.3429 282.397C73.3789 282.318 73.4082 282.255 73.4302 282.208Z" fill="#253368"/>
<path d="M176.321 314.076C176.787 314.076 177.165 314.455 177.165 314.921C177.165 315.341 176.859 315.69 176.458 315.755L176.321 315.766H76.0968C75.6302 315.766 75.252 315.388 75.252 314.921C75.252 314.501 75.5583 314.153 75.9598 314.088L76.0968 314.076H176.321Z" fill="#253368"/>
<path d="M206.497 233.406C206.896 233.277 207.322 233.461 207.508 233.822L207.561 233.949L221.939 278.352C222.049 278.69 221.934 279.054 221.665 279.271L221.541 279.354L187.92 297.751C187.511 297.975 186.998 297.825 186.774 297.416C186.575 297.052 186.671 296.606 186.983 296.354L187.109 296.269L220.116 278.206L205.953 234.47C205.824 234.07 206.008 233.645 206.37 233.459L206.497 233.406Z" fill="#253368"/>
<path fill-rule="evenodd" clip-rule="evenodd" d="M60.1993 485.67C54.2561 465.711 35.9037 413.315 31.7853 384.865C31.7853 384.865 28.2527 368.425 50.4982 365.517C72.1894 362.683 73.0162 393.111 73.0162 393.111C76.4362 427.245 81.9175 465.013 84.3822 483.994C84.3822 483.994 85.2812 494.227 74.9447 497.915C62.6798 502.29 60.1993 485.67 60.1993 485.67Z" fill="#FFC999"/>
<path fill-rule="evenodd" clip-rule="evenodd" d="M152.62 607.456L41.1829 602.398C38.2293 602.265 35.9449 599.762 36.0778 596.808L39.6284 518.6C39.7613 515.647 42.2643 513.36 45.2179 513.493L156.655 518.553C159.608 518.686 161.893 521.189 161.76 524.142L158.209 602.351C158.076 605.304 155.573 607.591 152.62 607.456Z" fill="#C44343"/>
<path fill-rule="evenodd" clip-rule="evenodd" d="M148.826 607.284L37.3912 602.226C34.4376 602.094 32.1509 599.588 32.2838 596.637L35.8344 518.429C35.9674 515.475 38.4726 513.188 41.4262 513.321L152.861 518.379C155.814 518.514 158.101 521.015 157.966 523.971L154.415 602.179C154.282 605.133 151.779 607.419 148.826 607.284Z" fill="#FF7946"/>
<path fill-rule="evenodd" clip-rule="evenodd" d="M103.783 516.171C96.8783 515.667 91.4149 516.171 88.4748 516.039C80.8802 515.698 82.9777 541.172 81.4547 545.187C79.1364 551.297 64.7763 547.807 59.2498 524.856C57.6795 518.33 58.1234 508.606 58.1121 499.362C58.1121 499.362 60.0136 477.16 68.8946 475.891C76.5974 474.79 83.0948 483.017 83.0948 483.017C83.0948 483.017 91.2707 494.451 95.4567 504.848L103.783 516.171Z" fill="#FFC999"/>
<path d="M76.253 521.881C76.7131 521.959 77.0228 522.395 76.9448 522.855L76.8217 523.682C76.7278 524.364 76.6338 525.15 76.5459 526.028C75.9501 531.981 75.9427 538.489 76.9132 544.831C76.9837 545.292 76.667 545.724 76.2058 545.794C75.7446 545.865 75.3135 545.548 75.2429 545.087C74.2482 538.587 74.2558 531.943 74.8646 525.86L74.9753 524.826C74.9942 524.661 75.0132 524.501 75.0323 524.344L75.2018 523.071C75.2346 522.845 75.261 522.678 75.2789 522.572C75.349 522.158 75.7093 521.866 76.1161 521.869L76.253 521.881Z" fill="#DD936F"/>
<path d="M68.8875 519.419L69.0238 519.437C69.4801 519.535 69.771 519.984 69.6734 520.44C68.1847 527.404 68.5011 533.78 69.9265 539.246C70.1913 540.262 70.4743 541.156 70.7563 541.92L70.9741 542.485C71.0352 542.636 71.084 542.748 71.1181 542.821C71.3151 543.244 71.1318 543.747 70.7088 543.944C70.2859 544.141 69.7833 543.958 69.5863 543.535L69.4146 543.136C69.3446 542.964 69.2626 542.753 69.1711 542.505C68.8703 541.69 68.5706 540.743 68.2914 539.672C66.8031 533.964 66.4737 527.326 68.0211 520.087C68.1088 519.676 68.4813 519.4 68.8875 519.419Z" fill="#DD936F"/>
<path d="M62.4434 515.005C62.9072 515.055 63.2422 515.472 63.1916 515.936L63.136 516.611L63.1095 517.037C62.871 521.221 63.0696 526.843 64.0397 533.641C64.1056 534.102 63.7846 534.53 63.3227 534.596C62.8608 534.662 62.4329 534.341 62.3669 533.879C61.3804 526.966 61.1778 521.233 61.4225 516.941L61.4898 515.979C61.4979 515.889 61.5053 515.813 61.5118 515.753C61.5574 515.336 61.8998 515.022 62.306 515.001L62.4434 515.005Z" fill="#DD936F"/>
<path fill-rule="evenodd" clip-rule="evenodd" d="M194.199 162.125L174.026 148.136C174.026 148.136 164.744 123.843 159.923 120.008C155.1 116.174 148.726 116.807 143.393 114.309C138.061 111.812 139.165 117.755 145.815 121.214C152.468 124.674 155.201 124.341 156.719 131.206C158.238 138.07 156.672 164.693 166.452 169.194C169.913 172.481 171.334 172.727 173.465 174.644C178.116 178.821 185.438 178.314 189.234 173.349C189.326 173.229 189.418 173.108 189.509 172.984C193.429 167.701 199.978 165.27 194.199 162.125Z" fill="#FFC999"/>
<path d="M138.847 115.144C138.206 112.806 140.07 111.913 142.929 113.251C143.217 113.386 143.341 113.729 143.207 114.017C143.072 114.305 142.729 114.429 142.441 114.294C140.342 113.311 139.632 113.652 139.958 114.839C140.389 116.412 142.279 118.452 144.964 119.947L145.762 120.366C146.861 120.925 149.683 122.35 150.478 122.785C154.788 125.14 156.731 127.408 157.747 132.001L157.841 132.459C158.283 134.746 158.738 139.135 159.244 145.531L159.95 155.177C160.008 156.007 160.074 156.963 160.152 158.093C160.439 162.277 162.067 164.947 165.771 167.987L166.394 168.488C166.72 168.744 167.069 169.012 167.453 169.301L171.15 172.003C171.407 172.191 171.463 172.551 171.276 172.808C171.088 173.064 170.728 173.12 170.471 172.933L167.591 170.838L166.758 170.219C166.106 169.729 165.554 169.298 165.04 168.876C161.11 165.65 159.315 162.706 159.003 158.172L158.316 148.481L158.044 144.968C157.545 138.762 157.095 134.54 156.669 132.463L156.623 132.249C155.718 128.157 154.082 126.143 150.336 124.023L149.926 123.795C149.018 123.299 145.349 121.452 144.841 121.188C141.679 119.543 139.396 117.142 138.847 115.144Z" fill="#DD936F"/>
<path fill-rule="evenodd" clip-rule="evenodd" d="M172.133 173.493L183.6 155.165L273.17 208.465C282.761 214.174 285.831 227.103 279.911 236.852C273.988 246.6 259.797 249.36 250.76 242.739L172.133 173.493Z" fill="#FFC999"/>
<path d="M173.893 175.212C174.169 174.901 174.621 174.841 174.963 175.049L175.086 175.14L247.822 239.637C248.171 239.946 248.203 240.48 247.893 240.829C247.618 241.14 247.166 241.2 246.824 240.992L246.701 240.901L173.965 176.404C173.616 176.095 173.584 175.561 173.893 175.212Z" fill="#DD936F"/>
<path fill-rule="evenodd" clip-rule="evenodd" d="M255.824 138.055L252.916 140.869L230.4 117.6L233.308 114.786L255.824 138.055Z" fill="#A3B5D6"/>
<path fill-rule="evenodd" clip-rule="evenodd" d="M235.821 94.0599C235.586 108.306 223.848 119.665 209.602 119.43C195.356 119.196 183.997 107.457 184.232 93.2109C184.466 78.965 196.205 67.6063 210.451 67.8408C224.697 68.0752 236.055 79.8141 235.821 94.0599ZM175.633 93.0694C175.321 112.064 190.466 127.716 209.46 128.028C228.455 128.341 244.107 113.196 244.419 94.2014C244.732 75.2068 229.587 59.5551 210.592 59.2425C191.598 58.9299 175.946 74.0748 175.633 93.0694Z" fill="#4E5C93"/>
<path fill-rule="evenodd" clip-rule="evenodd" d="M209.727 111.87C199.656 111.704 191.627 103.406 191.792 93.3353C191.958 83.2647 200.256 75.235 210.327 75.4008C220.398 75.5665 228.427 83.8649 228.262 93.9355C228.096 104.006 219.798 112.036 209.727 111.87Z" fill="#A3B5D6"/>
<path fill-rule="evenodd" clip-rule="evenodd" d="M220.143 93.8019C220.051 99.3887 215.447 103.843 209.861 103.751C204.274 103.659 199.82 99.0558 199.912 93.4689C200.004 87.8822 204.607 83.4279 210.194 83.5199C215.78 83.6118 220.235 88.2152 220.143 93.8019Z" fill="white"/>
<path fill-rule="evenodd" clip-rule="evenodd" d="M266.729 149.326L263.821 152.14C263.018 152.917 261.737 152.896 260.96 152.093L241.19 131.661C240.413 130.858 240.434 129.577 241.237 128.8C241.237 128.8 241.237 128.8 241.237 128.8L244.145 125.986C244.948 125.209 246.229 125.23 247.006 126.033L266.776 146.465C267.553 147.268 267.532 148.549 266.729 149.326C266.729 149.326 266.729 149.326 266.729 149.326Z" fill="#4E5C93"/>
</g>
<defs>
<clipPath id="clip0_1249_4884">
<rect width="355" height="575" fill="white"/>
</clipPath>
</defs>
</svg>
