<svg width="253" height="365" viewBox="0 0 253 365" fill="none" xmlns="http://www.w3.org/2000/svg">
<path d="M152.455 113.819C152.742 114.108 153.081 114.312 153.441 114.432L150.46 124.222C150.419 124.353 150.493 124.493 150.623 124.533C150.754 124.573 150.892 124.499 150.932 124.368L153.925 114.542C154.667 114.633 155.441 114.392 156.01 113.819C156.992 112.83 156.992 111.227 156.01 110.239C155.028 109.25 153.437 109.25 152.455 110.239C151.473 111.227 151.473 112.83 152.455 113.819Z" fill="#597EF7"/>
<path d="M173.726 124.449C173.921 124.498 174.124 124.524 174.333 124.524C175.721 124.524 176.847 123.39 176.847 121.992C176.847 120.594 175.721 119.46 174.333 119.46C172.945 119.46 171.819 120.594 171.819 121.992C171.819 123.004 172.409 123.877 173.261 124.282L170.652 131.557C170.606 131.686 170.673 131.829 170.801 131.875C170.929 131.922 171.071 131.855 171.117 131.726L173.726 124.449Z" fill="#597EF7"/>
<path d="M170.781 122.817C170.813 122.95 170.732 123.085 170.6 123.118L152.642 127.575C152.854 128.413 152.635 129.338 151.984 129.994C151.002 130.982 149.41 130.982 148.429 129.994C147.447 129.005 147.447 127.402 148.429 126.413C149.41 125.425 151.002 125.425 151.984 126.413C152.189 126.62 152.352 126.855 152.471 127.104L170.482 122.635C170.614 122.602 170.748 122.683 170.781 122.817Z" fill="#597EF7"/>
<path d="M171.628 136.771C170.647 137.76 169.055 137.76 168.073 136.771C167.092 135.782 167.092 134.179 168.073 133.191C169.055 132.202 170.647 132.202 171.628 133.191C172.61 134.179 172.61 135.782 171.628 136.771Z" fill="#597EF7"/>
<path fill-rule="evenodd" clip-rule="evenodd" d="M43.1981 52.5287L36.7188 73.029H40.636L47.1153 52.5287H43.1981Z" fill="#597EF7"/>
<path fill-rule="evenodd" clip-rule="evenodd" d="M33.9587 54.8596H29.8002H27.1788C26.9743 54.8596 26.8086 55.0266 26.8086 55.2326V57.8728V67.6855V70.3257C26.8086 70.5317 26.9743 70.6986 27.1788 70.6986H29.8002H33.9587C34.1631 70.6986 34.3289 70.5317 34.3289 70.3257V68.0584C34.3289 67.8524 34.1631 67.6855 33.9587 67.6855H29.8002V57.8728H33.9587C34.1631 57.8728 34.3289 57.7058 34.3289 57.4999V55.2326C34.3289 55.0266 34.1631 54.8596 33.9587 54.8596Z" fill="#CCD7EE"/>
<path fill-rule="evenodd" clip-rule="evenodd" d="M56.655 54.8596H54.0335H49.8751C49.6707 54.8596 49.5049 55.0266 49.5049 55.2326V57.4999C49.5049 57.7058 49.6707 57.8728 49.8751 57.8728H54.0335V67.6855H49.8751C49.6707 67.6855 49.5049 67.8524 49.5049 68.0584V70.3257C49.5049 70.5317 49.6707 70.6986 49.8751 70.6986H54.0335H56.655C56.8595 70.6986 57.0252 70.5317 57.0252 70.3257V68.0584V57.4999V55.2326C57.0252 55.0266 56.8595 54.8596 56.655 54.8596Z" fill="#CCD7EE"/>
<path fill-rule="evenodd" clip-rule="evenodd" d="M197.415 22.6273H140.999V17.5359C140.999 16.4315 141.888 15.536 142.985 15.536H195.43C196.526 15.536 197.415 16.4315 197.415 17.5359V22.6273Z" fill="#253368"/>
<path fill-rule="evenodd" clip-rule="evenodd" d="M195.43 71.6494H142.985C141.888 71.6494 140.999 70.754 140.999 69.6495V22.0308H197.415V69.6495C197.415 70.754 196.526 71.6494 195.43 71.6494Z" fill="#E4EBF7"/>
<path fill-rule="evenodd" clip-rule="evenodd" d="M145.583 18.8359C145.583 19.529 145.025 20.091 144.337 20.091C143.649 20.091 143.091 19.529 143.091 18.8359C143.091 18.1428 143.649 17.5808 144.337 17.5808C145.025 17.5808 145.583 18.1428 145.583 18.8359Z" fill="#A3B5D6"/>
<path fill-rule="evenodd" clip-rule="evenodd" d="M150.237 18.8359C150.237 19.529 149.679 20.091 148.991 20.091C148.303 20.091 147.745 19.529 147.745 18.8359C147.745 18.1428 148.303 17.5808 148.991 17.5808C149.679 17.5808 150.237 18.1428 150.237 18.8359Z" fill="#E4EBF7"/>
<path fill-rule="evenodd" clip-rule="evenodd" d="M154.892 18.8359C154.892 19.529 154.334 20.091 153.645 20.091C152.957 20.091 152.399 19.529 152.399 18.8359C152.399 18.1428 152.957 17.5808 153.645 17.5808C154.334 17.5808 154.892 18.1428 154.892 18.8359Z" fill="#E4EBF7"/>
<path fill-rule="evenodd" clip-rule="evenodd" d="M147.096 64.9002C146.754 64.9002 146.477 64.621 146.477 64.2767V28.1281C146.477 27.7838 146.754 27.5046 147.096 27.5046H191.934C192.276 27.5046 192.553 27.7838 192.553 28.1281V64.2767C192.553 64.621 192.276 64.9002 191.934 64.9002H147.096Z" fill="white"/>
<path fill-rule="evenodd" clip-rule="evenodd" d="M177.228 48.49C174.537 48.49 172.351 46.2788 172.351 43.5441C172.341 40.827 174.521 38.6168 177.219 38.6074C177.222 38.6074 177.225 38.6074 177.228 38.6074C179.917 38.6074 182.103 40.8185 182.103 43.5518C182.099 46.2788 179.917 48.4884 177.228 48.49ZM189.362 41.824C189.267 41.2852 188.755 40.7339 188.22 40.6154L187.821 40.5229C186.852 40.227 186.032 39.5701 185.528 38.6859C185.018 37.7928 184.867 36.7372 185.106 35.7355L185.231 35.3568C185.392 34.8317 185.184 34.1065 184.766 33.7477C184.766 33.7477 184.392 33.4274 183.34 32.8114C182.284 32.1986 181.831 32.0277 181.831 32.0277C181.317 31.8367 180.599 32.02 180.223 32.4234L179.946 32.7237C179.215 33.4282 178.241 33.8195 177.229 33.8155C176.212 33.8183 175.233 33.4237 174.499 32.7144L174.233 32.4219C173.863 32.0185 173.14 31.8398 172.624 32.0277C172.624 32.0277 172.166 32.1986 171.111 32.8114C170.054 33.432 169.683 33.7523 169.683 33.7523C169.267 34.108 169.059 34.8256 169.22 35.3568L169.334 35.7402C169.57 36.7405 169.419 37.7936 168.912 38.6859C168.409 39.5773 167.582 40.2374 166.605 40.5275L166.221 40.6154C165.696 40.7385 165.177 41.2821 165.079 41.824C165.079 41.824 164.992 42.3107 164.992 43.5456C164.992 44.7805 165.079 45.2656 165.079 45.2656C165.174 45.8107 165.686 46.3558 166.221 46.4744L166.596 46.5621C167.574 46.8532 168.403 47.5153 168.906 48.4099C169.432 49.3385 169.559 50.3947 169.328 51.3603L169.22 51.7344C169.059 52.2595 169.267 52.9848 169.684 53.3436C169.684 53.3436 170.059 53.6638 171.111 54.2798C172.167 54.8958 172.621 55.0636 172.621 55.0636C173.133 55.2545 173.854 55.0712 174.23 54.6678L174.492 54.3814C176.021 52.9078 178.431 52.9094 179.958 54.3844L180.221 54.6724C180.591 55.0743 181.314 55.2545 181.83 55.0667C181.83 55.0667 182.288 54.8958 183.345 54.2829C184.4 53.6669 184.77 53.3467 184.77 53.3467C185.187 52.9925 185.395 52.2687 185.234 51.7375L185.12 51.3494C184.883 50.3527 185.034 49.3026 185.542 48.4146C186.048 47.5228 186.875 46.8612 187.852 46.5668L188.228 46.479C188.754 46.3558 189.272 45.8122 189.37 45.2702C189.37 45.2702 189.457 44.7836 189.457 43.5502C189.448 42.3138 189.362 41.824 189.362 41.824Z" fill="#4E5C93"/>
<path fill-rule="evenodd" clip-rule="evenodd" d="M160.364 54.7393C159.166 55.4253 157.637 54.9983 156.949 53.7808C156.262 52.5736 156.677 51.034 157.876 50.342L157.88 50.3397C159.077 49.6541 160.606 50.081 161.293 51.2979C161.976 52.5131 161.56 54.053 160.364 54.7393ZM164.09 48.678C163.913 48.4623 163.546 48.3474 163.278 48.4311L163.077 48.4916C162.572 48.607 162.041 48.5235 161.595 48.2586C161.143 47.9908 160.811 47.5593 160.665 47.0526L160.626 46.8521C160.565 46.5774 160.29 46.3075 160.015 46.2542C160.015 46.2542 159.767 46.2071 159.144 46.2011C158.52 46.1976 158.275 46.2368 158.275 46.2368C157.999 46.2828 157.725 46.5476 157.659 46.8231L157.611 47.0273C157.463 47.5273 157.128 47.9498 156.676 48.206C156.224 48.4666 155.689 48.5405 155.184 48.412L154.992 48.3496C154.726 48.2643 154.359 48.3691 154.177 48.5841C154.177 48.5841 154.015 48.7772 153.7 49.3189C153.385 49.8646 153.301 50.1019 153.301 50.1019C153.205 50.3662 153.293 50.7387 153.498 50.9342L153.645 51.0757C154.001 51.4609 154.199 51.9682 154.198 52.4947C154.197 53.0199 153.995 53.5245 153.633 53.9027L153.485 54.0397C153.281 54.2286 153.187 54.6027 153.28 54.869C153.28 54.869 153.363 55.1078 153.674 55.6576C153.984 56.2073 154.145 56.401 154.145 56.401C154.324 56.6195 154.689 56.7317 154.957 56.648L155.146 56.5916C155.655 56.4717 156.19 56.5552 156.639 56.8253C157.106 57.1045 157.428 57.5425 157.568 58.0311L157.614 58.2254C157.674 58.5 157.949 58.7699 158.225 58.8232C158.225 58.8232 158.472 58.8703 159.096 58.8763C159.721 58.8812 159.965 58.8402 159.965 58.8402C160.241 58.7947 160.515 58.5294 160.582 58.2539L160.627 58.0594C160.937 57.0136 162.01 56.4 163.061 56.6673L163.25 56.7284C163.516 56.813 163.883 56.7088 164.065 56.4939C164.065 56.4939 164.226 56.3009 164.543 55.7587C164.857 55.2155 164.942 54.9786 164.942 54.9786C165.038 54.7145 164.949 54.3393 164.744 54.1438L164.596 54.0002C164.24 53.6169 164.043 53.1109 164.046 52.5861C164.047 52.0601 164.249 51.5546 164.61 51.1745L164.755 51.0396C164.958 50.8506 165.053 50.4765 164.96 50.2102C164.96 50.2102 164.876 49.9714 164.566 49.4223C164.251 48.8742 164.09 48.678 164.09 48.678Z" fill="#A3B5D6"/>
<path fill-rule="evenodd" clip-rule="evenodd" d="M158.351 33.9112H151.493C151.045 33.9112 150.679 33.5421 150.679 33.0909V33.0221C150.679 32.5709 151.045 32.2017 151.493 32.2017H158.351C158.799 32.2017 159.165 32.5709 159.165 33.0221V33.0909C159.165 33.5421 158.799 33.9112 158.351 33.9112Z" fill="#A3B5D6"/>
<path fill-rule="evenodd" clip-rule="evenodd" d="M156.433 37.9109H152.19C151.721 37.9109 151.341 37.5283 151.341 37.0562C151.341 36.5842 151.721 36.2014 152.19 36.2014H156.433C156.901 36.2014 157.281 36.5842 157.281 37.0562C157.281 37.5283 156.901 37.9109 156.433 37.9109Z" fill="#A3B5D6"/>
<path fill-rule="evenodd" clip-rule="evenodd" d="M195.572 3.71478C185.74 3.71478 177.77 11.7423 177.77 21.6449C177.77 31.5473 185.74 39.5749 195.572 39.5749C205.404 39.5749 213.374 31.5473 213.374 21.6449C213.374 11.7423 205.404 3.71478 195.572 3.71478Z" fill="#597EF7"/>
<path fill-rule="evenodd" clip-rule="evenodd" d="M192.703 27.7357L191.579 26.6037L202.47 15.5942C202.843 15.2191 203.447 15.2191 203.819 15.5942L204.269 16.047C204.641 16.4221 204.641 17.0303 204.269 17.4055L194.052 27.7357C193.679 28.1108 193.075 28.1108 192.703 27.7357Z" fill="white"/>
<path fill-rule="evenodd" clip-rule="evenodd" d="M195.174 26.6037L194.05 27.7357C193.677 28.1108 193.074 28.1108 192.701 27.7357L188.226 23.2281C187.853 22.853 187.853 22.2448 188.226 21.8697L188.675 21.4169C189.048 21.0418 189.651 21.0418 190.024 21.4169L195.174 26.6037Z" fill="white"/>
<path fill-rule="evenodd" clip-rule="evenodd" d="M144.662 87.1326L146.78 68.7853C146.78 68.7853 152.573 53.2374 155.629 53.6385C158.529 54.3929 153.061 59.4623 152.491 63.6825C155.039 63.0779 154.486 67.1296 154.486 67.1296C154.486 67.1296 156.526 66.7203 156.479 69.9565C158.566 70.7833 157.617 74.6419 157.617 74.6419C157.617 74.6419 155.313 84.7754 152.088 91.8091C152.088 91.8091 145.929 98.4238 144.662 87.1326Z" fill="#997C79"/>
<path fill-rule="evenodd" clip-rule="evenodd" d="M144.808 81.0263C144.808 81.0263 144.58 74.8894 144.638 71.7345C144.698 68.5796 142.525 63.2523 144.979 64.3586C146.63 65.1026 146.897 68.4379 147.233 70.8757C147.568 73.3127 152.385 78.4365 150.121 82.8922C148.591 85.9033 145.557 86.7591 144.808 81.0263Z" fill="#997C79"/>
<path d="M152.648 63.4513C152.775 63.5385 152.807 63.7125 152.721 63.8399L152.614 64.0003C152.55 64.0988 152.48 64.2078 152.406 64.3262L152.33 64.4477C152.035 64.9224 151.741 65.4304 151.466 65.9505C151.188 66.4762 150.947 66.9853 150.752 67.4662C149.994 69.3321 150.035 70.4696 151.011 70.7054C151.16 70.7414 151.252 70.8923 151.217 71.0425C151.181 71.1926 151.031 71.2852 150.882 71.2492C149.418 70.8958 149.365 69.404 150.238 67.2546C150.441 66.7548 150.69 66.2292 150.976 65.6879C151.257 65.1555 151.558 64.6365 151.859 64.1514L152.011 63.9091L152.262 63.524C152.349 63.3966 152.522 63.364 152.648 63.4513Z" fill="#604346"/>
<path d="M154.06 67.0935C154.166 66.9812 154.341 66.9762 154.453 67.0822C154.564 67.1882 154.569 67.3651 154.464 67.4774L154.342 67.6104L154.187 67.785C154.132 67.8469 154.075 67.9123 154.016 67.9811C153.679 68.3741 153.342 68.7936 153.027 69.2216C152.728 69.6293 152.465 70.0237 152.249 70.3962C151.49 71.706 151.411 72.5334 152.081 72.8111C152.675 73.0572 153.373 72.6559 154.087 71.7874C154.294 71.5355 154.486 71.2643 154.656 70.9931L154.77 70.8064C154.813 70.7339 154.845 70.6761 154.866 70.6366C154.939 70.5004 155.107 70.449 155.242 70.5218C155.377 70.5946 155.428 70.764 155.356 70.9001L155.311 70.9825C155.266 71.0619 155.204 71.1673 155.125 71.292C154.943 71.5821 154.738 71.8722 154.515 72.1442C153.66 73.1826 152.764 73.6985 151.87 73.3282C150.748 72.8631 150.86 71.6842 151.769 70.1144C151.996 69.7228 152.27 69.3119 152.581 68.889C152.904 68.4487 153.25 68.0184 153.597 67.6153L153.853 67.3214L154.022 67.1346C154.038 67.1175 154.051 67.1037 154.06 67.0935Z" fill="#604346"/>
<path d="M155.742 70.0314C155.888 69.9836 156.044 70.0637 156.092 70.2105C156.14 70.3573 156.06 70.5151 155.914 70.563C155.503 70.6982 155.03 71.1651 154.514 72.0232C153.43 73.8274 153.314 74.9063 153.776 75.0863C154.243 75.2685 155.157 74.6555 155.643 73.6428C155.793 73.3301 156.263 73.5187 156.158 73.8495C155.491 75.9507 154.534 77.2908 153.08 78.4981C152.962 78.5962 152.841 78.6929 152.709 78.7963L152.335 79.0832C152.175 79.2042 151.887 79.421 151.798 79.4889C150.05 80.8235 149.406 81.8308 149.323 84.0465C149.317 84.2008 149.188 84.3211 149.035 84.3152C148.881 84.3093 148.762 84.1795 148.768 84.0252C148.854 81.7404 149.521 80.5886 151.191 79.2555L151.552 78.9761C151.719 78.8495 152.015 78.6262 152.092 78.5682L152.368 78.3556C152.496 78.255 152.613 78.1612 152.727 78.0667C153.66 77.2916 154.372 76.466 154.931 75.3926L154.978 75.2979L154.934 75.3293C154.495 75.6235 154.034 75.747 153.651 75.6335L153.575 75.6077C152.642 75.2438 152.796 73.8012 154.039 71.7336C154.617 70.7718 155.18 70.2161 155.742 70.0314Z" fill="#604346"/>
<path d="M146.747 67.5581C146.881 67.5247 147.016 67.5954 147.069 67.7191L147.083 67.7622L148.19 72.2627L148.252 72.3388L148.381 72.5037C148.426 72.5626 148.473 72.6253 148.521 72.6918C148.799 73.0703 149.076 73.4923 149.335 73.9478C150.105 75.2995 150.558 76.6588 150.53 77.9445C150.519 78.4552 150.43 78.944 150.258 79.4066C150.204 79.5512 150.044 79.6245 149.901 79.5703C149.757 79.5161 149.684 79.3549 149.738 79.2104C149.888 78.8085 149.965 78.3818 149.975 77.9322C150 76.7657 149.577 75.4972 148.854 74.2258C148.606 73.7902 148.34 73.386 148.075 73.0239L147.941 72.8453L147.761 72.618C147.746 72.5989 147.734 72.5846 147.726 72.5753C147.707 72.5531 147.691 72.5281 147.68 72.5013L147.666 72.4598L146.544 67.8966C146.507 67.7468 146.598 67.5952 146.747 67.5581Z" fill="#604346"/>
<path fill-rule="evenodd" clip-rule="evenodd" d="M124.625 142.567C119.544 144.321 113.996 141.701 112.086 136.645L96.0008 94.0593C93.6959 87.9568 96.8683 81.1452 103 79.028C109.132 76.9108 115.786 80.3304 117.682 86.5739L130.919 130.143C132.491 135.316 129.706 140.813 124.625 142.567Z" fill="#ADC6FF"/>
<path fill-rule="evenodd" clip-rule="evenodd" d="M194.012 240.472C194.012 240.472 205.74 247.433 217.322 242.449C224.906 239.185 222.463 250.057 209.177 255.821C201.604 259.106 200.719 254.667 197.002 257.219C194.847 258.698 189.759 260.562 188.434 259.067C186.119 256.456 185.637 254.679 183.344 251.332C172.177 235.034 175.474 227.542 194.012 240.472Z" fill="#253368"/>
<path fill-rule="evenodd" clip-rule="evenodd" d="M125.818 255.699C125.818 255.699 127.033 269.354 137.803 275.932C144.856 280.238 134.659 284.573 122.268 277.055C115.204 272.769 118.271 269.459 114.046 267.903C111.597 267 107.129 263.922 107.563 261.966C108.321 258.55 109.474 257.12 110.839 253.293C117.485 234.656 125.452 232.991 125.818 255.699Z" fill="#253368"/>
<path fill-rule="evenodd" clip-rule="evenodd" d="M108.773 250.377L126.572 168.088C128.014 161.424 134.743 157.37 141.254 159.245C147.541 161.054 151.144 167.692 149.264 173.999L125.181 254.786C125.181 254.786 117.602 256.807 108.773 250.377Z" fill="#253368"/>
<path fill-rule="evenodd" clip-rule="evenodd" d="M62.4184 84.3122C62.4184 84.7565 62.0608 85.1166 61.619 85.1166C61.1778 85.1166 60.8203 84.7565 60.8203 84.3122C60.8203 83.8679 61.1778 83.5078 61.619 83.5078C62.0608 83.5078 62.4184 83.8679 62.4184 84.3122Z" fill="#4E5C93"/>
<path fill-rule="evenodd" clip-rule="evenodd" d="M95.6306 68.4918L96.6217 55.2079L78.7761 50.3652L75.6236 67.0009C75.05 70.9698 77.6813 75.0984 81.2386 76.9025C81.6072 77.0896 81.9921 77.2625 82.3903 77.4153C88.4013 79.7249 95.4308 74.9679 95.6306 68.4918Z" fill="#997C79"/>
<path fill-rule="evenodd" clip-rule="evenodd" d="M73.2053 42.042C74.3822 55.0717 82.955 61.4016 91.4537 62.3178C101.586 63.4107 104.354 54.7399 104.505 41.9548C104.658 28.972 99.3869 24.2412 89.8504 23.3936C79.9091 22.5109 72.0129 28.8446 73.2053 42.042Z" fill="#997C79"/>
<path fill-rule="evenodd" clip-rule="evenodd" d="M80.1185 44.3455C79.8787 43.3197 79.6899 41.6125 78.123 40.8454C75.9646 39.7883 73.8677 42.1933 74.0239 44.9173C74.2126 48.219 76.972 50.375 78.5974 50.4838C78.2458 53.6865 77.8994 55.3772 77.8994 55.3772C77.8994 55.3772 74.5228 51.6036 72.8574 45.9416C70.2593 37.1075 72.1942 25.6531 83.5455 23.2995C99.9975 21.0676 102.961 31.6468 102.961 31.6468L84.2946 30.2594L84.3975 36.5775C84.3975 36.5775 81.0563 36.5633 81.2909 44.0473L80.1185 44.3455Z" fill="#604346"/>
<path d="M88.3761 38.1113L94.1924 38.335C94.3967 38.3428 94.5559 38.516 94.5481 38.7217C94.541 38.9102 94.3959 39.0607 94.2145 39.0784L94.1642 39.0799L88.3995 38.8579L86.553 39.314C86.371 39.3589 86.1875 39.2598 86.1207 39.089L86.1054 39.0407C86.0609 38.8574 86.1592 38.6726 86.3289 38.6053L86.3768 38.5899L88.2739 38.1218L88.3761 38.1113Z" fill="#604346"/>
<path fill-rule="evenodd" clip-rule="evenodd" d="M84.5214 54.5986C86.8426 51.6777 86.8152 48.941 95.6455 49.6403C99.9415 49.9803 101.371 51.4973 102.702 55.0578C101.204 60.3217 96.6729 63.4229 90.9565 62.6275C78.9479 60.9554 79.1291 48.7666 79.1291 48.7666C79.1291 48.7666 80.8035 49.3078 81.2979 50.2524C82.6643 52.8653 83.6154 53.5556 84.5214 54.5986Z" fill="#7C5B4D"/>
<path fill-rule="evenodd" clip-rule="evenodd" d="M98.4955 52.3445C98.4955 52.3445 95.3623 52.3445 90.6074 51.6035C90.6074 51.6035 91.1892 53.6417 94.6347 53.8728C97.3379 54.0547 98.4955 52.3445 98.4955 52.3445Z" fill="white"/>
<path d="M90.6634 51.236C90.3963 51.1944 90.1764 51.4457 90.2511 51.7073C90.3516 52.0594 90.6365 52.552 91.1968 53.0332C91.9813 53.707 93.1032 54.1445 94.6095 54.2455C95.9278 54.3343 97.0165 54.0144 97.8785 53.4246C98.3429 53.1069 98.6457 52.7843 98.8006 52.5553C98.9675 52.3088 98.7934 51.9745 98.4971 51.9726L98.4422 51.9723C98.3091 51.9711 98.1377 51.9675 97.9299 51.9609L97.6634 51.9513C97.2476 51.935 96.7876 51.9103 96.2864 51.8759L96.0323 51.8579C94.3966 51.7382 92.5945 51.5369 90.6634 51.236ZM91.307 52.086L91.515 52.1165C93.1044 52.3424 94.5994 52.5005 95.9787 52.6014L96.2363 52.6197C96.66 52.6488 97.0549 52.671 97.4195 52.6872L97.6172 52.6953L97.5923 52.7151C97.5505 52.7464 97.5073 52.7774 97.4626 52.8079C96.7334 53.3069 95.8071 53.579 94.6587 53.5017C93.307 53.411 92.3369 53.0327 91.6771 52.466C91.5661 52.3707 91.4675 52.2729 91.3804 52.1739L91.307 52.086Z" fill="#604346"/>
<path d="M98.3682 38.8145C98.4339 38.6196 98.6441 38.5152 98.8376 38.5814C99.0151 38.6421 99.1169 38.825 99.082 39.0053L99.0691 39.0542L98.4031 41.0283L99.4148 48.6747C99.5145 49.4243 98.9388 50.085 98.2001 50.0953L98.1204 50.0939L93.4439 49.865C93.2398 49.855 93.0823 49.6803 93.0922 49.4747C93.1013 49.2862 93.2479 49.1372 93.4295 49.1214L93.4799 49.1204L98.1564 49.3493C98.4513 49.3638 98.6913 49.1218 98.6856 48.8319L98.6812 48.7734L97.6582 41.0404C97.6532 41.0025 97.654 40.9641 97.6606 40.9267L97.6747 40.8713L98.3682 38.8145Z" fill="#604346"/>
<path d="M93.2008 55.8076L95.4391 55.9068C95.6433 55.9158 95.8016 56.0899 95.7926 56.2955C95.7843 56.4841 95.6384 56.6337 95.4569 56.6504L95.4066 56.6515L93.1683 56.5524C92.9641 56.5433 92.8058 56.3693 92.8148 56.1636C92.823 55.9751 92.9689 55.8255 93.1505 55.8088L93.2008 55.8076Z" fill="#604346"/>
<path d="M99.0092 38.5801L103.947 38.7434C104.151 38.7501 104.311 38.9224 104.305 39.1281C104.299 39.3167 104.154 39.468 103.973 39.4867L103.923 39.4884L98.9849 39.3252C98.7806 39.3184 98.6204 39.1462 98.6272 38.9404C98.6333 38.7518 98.7775 38.6005 98.9589 38.5818L99.0092 38.5801Z" fill="#604346"/>
<path d="M84.0445 60.0637C84.1562 59.8912 84.3855 59.8427 84.5567 59.9551C87.9334 62.1735 91.4257 62.7016 94.4151 62.2854L94.6696 62.2466C94.7092 62.24 94.7474 62.2334 94.7841 62.2267L95.0275 62.1776C95.0346 62.1759 95.0406 62.1745 95.0454 62.1733C95.2438 62.1238 95.4445 62.2456 95.4937 62.4454C95.5429 62.6452 95.4219 62.8473 95.2235 62.8969L95.1197 62.9208C94.9803 62.9509 94.7773 62.9876 94.5164 63.0239C91.3646 63.4627 87.6967 62.9081 84.1523 60.5795C83.9811 60.467 83.9329 60.2361 84.0445 60.0637Z" fill="#604346"/>
<path d="M76.6622 42.1397C77.0271 42.1011 77.445 42.1525 77.8479 42.367C78.6293 42.783 79.0886 43.6905 79.0886 45.1678C79.0886 45.3129 78.9784 45.4339 78.8348 45.4463C78.1102 45.5092 77.7495 45.7747 77.6813 46.1573C77.6189 46.5074 77.8054 46.9606 78.1514 47.2929C78.2623 47.3995 78.2665 47.5765 78.1607 47.6882C78.0549 47.7999 77.8792 47.8041 77.7682 47.6975C77.2971 47.2449 77.0364 46.6114 77.1349 46.0585C77.2377 45.4818 77.6951 45.0826 78.4471 44.9363L78.5286 44.9217L78.5271 44.8817C78.4788 43.8234 78.1567 43.2019 77.6549 42.899L77.5884 42.8613C77.3294 42.7234 77.054 42.6777 76.81 42.6889L76.6765 42.7014C76.5259 42.7299 76.3808 42.63 76.3525 42.4783C76.3242 42.3265 76.4233 42.1804 76.574 42.1519L76.626 42.1439C76.637 42.1425 76.6491 42.1411 76.6622 42.1397Z" fill="#604346"/>
<path d="M101.276 42.424C102.307 42.494 103.078 43.4215 103.007 44.4893C102.993 44.6947 102.817 44.85 102.613 44.8362C102.409 44.8224 102.255 44.6447 102.269 44.4393C102.313 43.7754 101.843 43.2097 101.227 43.1678C100.612 43.1266 100.071 43.6248 100.026 44.2888C100.013 44.4942 99.8363 44.6495 99.6324 44.6357C99.4285 44.6219 99.2743 44.4442 99.288 44.2388C99.3569 43.2047 100.191 42.4062 101.18 42.4201L101.276 42.424Z" fill="#604346"/>
<path d="M90.9835 41.7316C92.0144 41.8016 92.7854 42.7291 92.7142 43.7969C92.7005 44.0023 92.5241 44.1576 92.3202 44.1438C92.1162 44.13 91.962 43.9524 91.9757 43.747C92.0199 43.083 91.5497 42.5173 90.934 42.4754C90.3187 42.4342 89.7778 42.9324 89.7335 43.5964C89.7198 43.8018 89.5434 43.9571 89.3394 43.9433C89.1355 43.9295 88.9813 43.7518 88.995 43.5464C89.064 42.5123 89.8981 41.7138 90.8873 41.7277L90.9835 41.7316Z" fill="#604346"/>
<path fill-rule="evenodd" clip-rule="evenodd" d="M52.7291 143.386C69.1137 147.237 90.6566 146.214 97.9532 143.175C101.132 141.852 101.162 139.473 100.22 135.43C100.22 135.43 110.272 100.694 111.708 79.9259C106.428 76.8477 102.955 74.7484 97.1346 71.9916C95.3212 71.1328 89.8838 73.5385 87.55 73.1166C84.1008 72.4933 78.7582 67.9384 75.4311 68.2865C62.971 69.5882 53.3546 72.6491 53.3546 72.6491C41.2675 82.0945 52.7291 143.386 52.7291 143.386Z" fill="#ADC6FF"/>
<path fill-rule="evenodd" clip-rule="evenodd" d="M95.7163 68.2139L98.7865 72.8598L92.4299 81.4448L86.1436 72.6495L95.7163 68.2139Z" fill="#ADC6FF"/>
<path fill-rule="evenodd" clip-rule="evenodd" d="M85.874 72.8545L75.9238 65.3877L71.6641 68.9757L78.3634 79.9255L85.874 72.8545Z" fill="#ADC6FF"/>
<path fill-rule="evenodd" clip-rule="evenodd" d="M90.8662 79.6468L85.8634 72.915L80.0293 78.5278L82.5548 85.2238L88.3185 85.906L90.8662 79.6468Z" fill="#253368"/>
<path fill-rule="evenodd" clip-rule="evenodd" d="M88.3543 85.7393L82.649 85.1914L75.8809 125.947L84.1982 139.818L93.3668 126.993L88.3543 85.7393Z" fill="#253368"/>
<path d="M71.7801 68.9729C71.9404 68.8751 72.1449 68.9144 72.2594 69.0572L72.2883 69.0987L78.4435 79.3414L85.6124 72.6416C85.7606 72.5031 85.9882 72.5117 86.1262 72.6516L86.1615 72.693L92.2523 80.9745L98.1932 72.7053C98.3021 72.5537 98.5032 72.509 98.6633 72.5928L98.71 72.6218C98.8605 72.7315 98.9049 72.934 98.8217 73.0953L98.7929 73.1423L92.5561 81.8242C92.4207 82.0128 92.1534 82.0287 91.9959 81.8707L91.9589 81.8276L85.8127 73.4709L78.6141 80.1994C78.4555 80.3477 78.2089 80.326 78.0764 80.1629L78.0458 80.1192L71.6551 69.4848C71.5493 69.3086 71.6052 69.0795 71.7801 68.9729Z" fill="#597EF7"/>
<path d="M82.8245 85.0586L88.575 85.5752C88.6768 85.5844 88.7519 85.6749 88.7429 85.7774C88.7349 85.8671 88.6651 85.9363 88.5796 85.946L88.5421 85.9465L82.7917 85.4299C82.6899 85.4207 82.6147 85.3302 82.6238 85.2277C82.6317 85.138 82.7015 85.0688 82.7871 85.059L82.8245 85.0586Z" fill="#597EF7"/>
<path d="M108.651 96.9746C108.694 96.7734 108.891 96.6456 109.091 96.6892C109.291 96.7328 109.418 96.9312 109.375 97.1324L108.835 99.6307C106.805 108.994 104.864 117.513 103.065 125.073L102.58 127.101C102.152 128.883 101.754 130.52 101.387 132.007L100.908 133.942L100.389 135.996L100.443 136.129C100.522 136.33 100.6 136.556 100.673 136.804C101.01 137.952 101.123 139.139 100.875 140.262C100.473 142.083 99.1697 143.452 96.8081 144.163C96.6123 144.221 96.4061 144.109 96.3476 143.912C96.2891 143.715 96.4005 143.507 96.5963 143.448C98.7046 142.814 99.8095 141.653 100.153 140.1C100.37 139.119 100.268 138.052 99.963 137.016C99.9131 136.846 99.8606 136.688 99.8075 136.543L99.7543 136.402C99.7126 136.295 99.6809 136.222 99.6643 136.187C99.6347 136.124 99.6235 136.054 99.6313 135.985L99.6566 135.873L100.19 133.76L100.761 131.453C101.195 129.69 101.671 127.724 102.187 125.563L102.985 122.193C104.762 114.642 106.667 106.202 108.651 96.9746Z" fill="#597EF7"/>
<path fill-rule="evenodd" clip-rule="evenodd" d="M144.199 84.1494L155.823 92.5153L129.928 138.13C127.068 143.037 120.719 144.545 115.986 141.438C111.253 138.332 110.057 131.873 113.359 127.257L144.199 84.1494Z" fill="#ADC6FF"/>
<path d="M140.74 90.2945C140.853 90.1459 141.056 90.1068 141.213 90.195L141.259 90.2253L151.981 98.4988C152.143 98.624 152.174 98.858 152.049 99.0214C151.936 99.1699 151.734 99.209 151.576 99.1208L151.531 99.0906L140.809 90.8171C140.647 90.6919 140.616 90.4579 140.74 90.2945Z" fill="#597EF7"/>
<path fill-rule="evenodd" clip-rule="evenodd" d="M150.353 92.8639C150.701 92.3272 151.415 92.1751 151.948 92.5255C152.481 92.8751 152.632 93.5938 152.284 94.1313C151.937 94.6688 151.223 94.8201 150.69 94.4705C150.156 94.1201 150.006 93.4014 150.353 92.8639Z" fill="white"/>
<path fill-rule="evenodd" clip-rule="evenodd" d="M53.3892 148.486C53.3892 148.486 93.3447 151.639 96.1596 147.532C97.3987 145.723 102.976 159.968 105.247 174.87C101.586 181.686 64.3993 192.712 54.8126 172.142C51.7068 165.477 52.937 151.782 53.3892 148.486Z" fill="#4E5C93"/>
<path fill-rule="evenodd" clip-rule="evenodd" d="M96.494 143.596L97.2053 148.745C97.2053 148.745 93.2121 149.44 79.2612 150.16C65.1082 150.889 53.4275 149.243 53.4275 149.243L52.9375 143.596C52.9375 143.596 76.2783 144.645 96.494 143.596Z" fill="black"/>
<path fill-rule="evenodd" clip-rule="evenodd" d="M90.9046 148.275L90.9172 144.616C90.9201 143.585 90.0941 142.768 89.1163 142.842C86.7737 143.02 82.6324 143.264 79.6235 143.044C78.6398 142.973 77.819 143.816 77.8464 144.853L77.9448 148.591C77.9678 149.464 78.5925 150.187 79.4163 150.3C81.3748 150.57 85.1482 150.859 89.5205 150.01C90.3176 149.855 90.9016 149.128 90.9046 148.275Z" fill="#E4EBF7"/>
<path fill-rule="evenodd" clip-rule="evenodd" d="M89.3886 147.814L89.4042 145.225C89.4086 144.495 88.7728 143.919 88.0186 143.973C86.211 144.103 83.0157 144.283 80.6952 144.133C79.9358 144.084 79.3015 144.682 79.3207 145.415L79.3903 148.059C79.4066 148.677 79.887 149.187 80.5228 149.266C82.0335 149.453 84.9439 149.652 88.3183 149.043C88.9327 148.932 89.3849 148.417 89.3886 147.814Z" fill="black"/>
<path fill-rule="evenodd" clip-rule="evenodd" d="M152.143 171.128C152.082 177.567 146.978 182.806 140.588 182.989L69.3414 185.031C61.0706 185.268 54.2595 178.537 54.3366 170.204C54.415 161.871 61.3497 155.271 69.6145 155.664L140.81 159.051C147.196 159.354 152.201 164.689 152.143 171.128Z" fill="#4E5C93"/>
<path fill-rule="evenodd" clip-rule="evenodd" d="M178.875 246.883L131.071 177.783C127.201 172.187 128.826 164.461 134.617 160.927C140.21 157.515 147.492 159.367 150.805 165.044L193.242 237.764C193.242 237.764 189.56 244.736 178.875 246.883Z" fill="#4E5C93"/>
<path d="M143.71 83.9781C143.833 83.8043 144.071 83.7718 144.235 83.8965L144.288 83.943C144.381 84.016 144.88 84.3737 145.688 84.9455L150.128 88.0719L156.035 92.209C156.203 92.3263 156.245 92.5586 156.128 92.7277C156.022 92.8815 155.822 92.9301 155.66 92.8495L155.598 92.8109L150.264 89.076L144.993 85.3642L144.094 84.7192L116.232 124.189C116.125 124.341 115.924 124.387 115.763 124.305L115.716 124.276C115.565 124.168 115.519 123.966 115.601 123.804L115.629 123.757L143.71 83.9781Z" fill="#597EF7"/>
<path fill-rule="evenodd" clip-rule="evenodd" d="M37.5529 136.589C32.4916 134.777 29.7677 129.25 31.3976 124.095L45.1182 80.6772C47.0842 74.4561 53.7754 71.1118 59.8833 73.2983C65.9912 75.4841 69.0874 82.3315 66.7144 88.4072L50.1566 130.808C48.1907 135.843 42.6142 138.4 37.5529 136.589Z" fill="#ADC6FF"/>
<path fill-rule="evenodd" clip-rule="evenodd" d="M74.3587 198.892C76.0397 198.246 73.0582 190.772 72.13 189.242C70.8917 187.201 59.4959 180.856 59.4959 180.856L57.4938 171.839L46.998 176.149C46.998 176.149 48.6109 186.096 51.5694 191.224C53.7766 195.05 57.5308 194.23 62.8704 199.297C65.3411 201.641 68.4351 204.123 69.6941 202.252C69.9421 201.884 72.512 202.562 72.1819 200.275C72.1819 200.275 73.0553 200.961 73.8783 200.267C74.5934 199.665 74.3587 198.892 74.3587 198.892Z" fill="#997C79"/>
<path d="M60.6809 193.461C60.7462 193.322 60.9116 193.262 61.0503 193.328L61.2084 193.406C61.2436 193.424 61.2831 193.445 61.3266 193.467C61.5427 193.58 61.7831 193.714 62.0417 193.866C62.7805 194.301 63.5192 194.803 64.2099 195.367C64.8353 195.877 65.3912 196.415 65.859 196.978L69.9899 201.95C70.0883 202.068 70.0728 202.244 69.9552 202.343C69.8376 202.442 69.6626 202.427 69.5642 202.308L65.4332 197.337C64.99 196.803 64.4596 196.29 63.8604 195.801C63.1934 195.257 62.4775 194.77 61.7616 194.348C61.5612 194.231 61.3724 194.125 61.1983 194.031L60.9589 193.906C60.8928 193.872 60.8438 193.848 60.8136 193.833C60.6749 193.767 60.6155 193.601 60.6809 193.461Z" fill="#604346"/>
<path d="M63.4965 190.197C63.591 190.076 63.7654 190.054 63.8862 190.149L64.0695 190.297L64.3567 190.536C64.4783 190.639 64.6067 190.749 64.7408 190.866C65.3796 191.423 66.0185 192.023 66.6155 192.644C67.2974 193.353 67.881 194.044 68.3366 194.704L68.6362 195.134C68.74 195.282 68.8475 195.434 68.9586 195.591L69.5218 196.377C69.9831 197.016 70.4709 197.68 70.9639 198.344L71.706 199.338L72.1581 199.937C72.2513 200.06 72.2281 200.235 72.1064 200.329C71.9847 200.423 71.8105 200.4 71.7173 200.277L70.8908 199.178L70.1498 198.18C69.9045 197.848 69.6619 197.517 69.4246 197.191L68.9618 196.552L68.5068 195.916C68.2834 195.601 68.0742 195.303 67.8809 195.023C67.4444 194.391 66.8794 193.722 66.2167 193.033C65.632 192.425 65.0048 191.836 64.3774 191.289L64.1219 191.068C64.0395 190.998 63.9599 190.931 63.8835 190.867L63.544 190.59C63.4233 190.494 63.402 190.319 63.4965 190.197Z" fill="#604346"/>
<path d="M66.0234 187.942C66.1094 187.814 66.282 187.781 66.4089 187.867L66.5815 187.989L66.6446 188.035C66.8294 188.17 67.0351 188.325 67.2564 188.5C67.8884 188.999 68.5205 189.553 69.1112 190.146C70.1902 191.23 71.0078 192.321 71.4615 193.392L71.5378 193.58C71.7528 194.139 71.9915 194.688 72.25 195.224C72.6631 196.081 73.1057 196.865 73.548 197.559C73.6407 197.704 73.7294 197.839 73.8132 197.964L73.9741 198.198C74.0505 198.306 74.1044 198.38 74.1322 198.417C74.2254 198.539 74.2022 198.715 74.0805 198.808C73.9588 198.902 73.7846 198.879 73.6914 198.756L73.5938 198.623C73.5721 198.593 73.5477 198.559 73.5209 198.52L73.3544 198.278C73.2678 198.15 73.1763 198.011 73.0809 197.861C72.6272 197.149 72.1738 196.346 71.7506 195.468C71.5519 195.056 71.3645 194.637 71.1901 194.21L71.0202 193.782C70.6183 192.737 69.8116 191.639 68.7192 190.542C68.1454 189.966 67.5296 189.427 66.9138 188.94L66.663 188.745C66.5417 188.652 66.4268 188.567 66.3193 188.488L66.0975 188.33C65.9706 188.244 65.9374 188.07 66.0234 187.942Z" fill="#604346"/>
<path fill-rule="evenodd" clip-rule="evenodd" d="M45.7234 182.472L59.4759 178.572L50.4724 126.815C49.4361 121.223 43.9692 117.636 38.4712 118.941C32.9731 120.247 29.6727 125.915 31.2248 131.385L45.7234 182.472Z" fill="#ADC6FF"/>
<path d="M57.65 170.922C57.8448 170.86 58.0529 170.968 58.1148 171.164C58.1716 171.344 58.0858 171.535 57.9211 171.614L57.8743 171.632L45.0018 175.753C44.807 175.816 44.5989 175.707 44.537 175.511C44.4803 175.331 44.566 175.14 44.7308 175.062L44.7776 175.043L57.65 170.922Z" fill="#597EF7"/>
<path d="M61.9934 101.882C62.0742 101.693 62.2919 101.605 62.4797 101.687C62.6518 101.761 62.739 101.952 62.6901 102.129L62.6733 102.176L51.1866 129.055L59.5539 178.481C59.583 178.652 59.4902 178.819 59.3353 178.886L59.287 178.903L46.14 182.535C45.9428 182.589 45.7392 182.472 45.6852 182.274C45.6356 182.092 45.7289 181.904 45.8966 181.832L45.9442 181.816L58.768 178.273L50.4388 129.073C50.4298 129.019 50.4324 128.965 50.4462 128.913L50.4637 128.863L61.9934 101.882Z" fill="#597EF7"/>
<path fill-rule="evenodd" clip-rule="evenodd" d="M54.447 176.376C54.5928 177 55.2138 177.387 55.8333 177.239C56.4521 177.092 56.8363 176.467 56.6904 175.843C56.5439 175.219 55.9236 174.833 55.3041 174.979C54.6846 175.127 54.3011 175.752 54.447 176.376Z" fill="white"/>
<path d="M53.6779 75.4974C53.7639 75.3106 53.9839 75.2293 54.1693 75.3159L54.243 75.3518C54.3007 75.3808 54.3755 75.4202 54.4659 75.4703L54.5365 75.5098C54.8182 75.6689 55.131 75.8643 55.4669 76.098C56.4233 76.763 57.3785 77.6021 58.2698 78.6294C60.8129 81.561 62.3385 85.4131 62.3385 90.2813C62.3385 90.4872 62.1728 90.654 61.9684 90.654C61.764 90.654 61.5983 90.4872 61.5983 90.2813C61.5983 85.5992 60.141 81.9195 57.7124 79.1199C56.8635 78.1414 55.9544 77.3429 55.0464 76.7114C54.7826 76.528 54.535 76.3702 54.3081 76.237L54.1745 76.1601C54.0199 76.0727 53.9118 76.0173 53.8581 75.9923C53.6727 75.9057 53.592 75.6841 53.6779 75.4974Z" fill="#597EF7"/>
</svg>
